<svg xmlns="http://www.w3.org/2000/svg" viewBox="0 0 512 512">
  <rect width="512" height="512" fill="#2A1F12"/>
  <g transform="translate(256 245) scale(1.4)" stroke="#EEE7D9" stroke-width="20" fill="none" stroke-linecap="square">
    <line x1="-160" y1="-60" x2="-160" y2="60"/>
    <line x1="-115" y1="-60" x2="-115" y2="60"/>
    <line x1="-160" y1="0" x2="-115" y2="0"/>
    <circle cx="-55" cy="0" r="55"/>
    <path d="M 5 -35 Q 5 -55 35 -55 Q 65 -55 65 -35 Q 65 -15 35 -10 Q 5 -5 5 25 Q 5 45 35 45 Q 65 45 65 25"/>
    <path d="M 90 -35 Q 90 -55 120 -55 Q 150 -55 150 -35 Q 150 -15 120 -10 Q 90 -5 90 25 Q 90 45 120 45 Q 150 45 150 25"/>
    <circle cx="190" cy="0" r="55"/>
  </g>
  <text x="256" y="430" font-family="-apple-system, 'SF Pro Display', system-ui, sans-serif" font-size="32" font-weight="500" text-anchor="middle" fill="#B08F3A" letter-spacing="14">VISUALS</text>
</svg>
